<?xml version="1.0" standalone="no"?>
<!DOCTYPE svg PUBLIC "-//W3C//DTD SVG 20010904//EN"
 "http://www.w3.org/TR/2001/REC-SVG-20010904/DTD/svg10.dtd">
<svg version="1.0" xmlns="http://www.w3.org/2000/svg"
 width="512.000000pt" height="512.000000pt" viewBox="0 0 512.000000 512.000000"
 preserveAspectRatio="xMidYMid meet">

<g transform="translate(0.000000,512.000000) scale(0.100000,-0.100000)"
fill="#000000" stroke="none">
<path d="M3951 4991 c-68 -24 -96 -45 -149 -112 -104 -130 -120 -145 -161
-158 -55 -16 -96 -54 -177 -162 -45 -61 -70 -86 -74 -77 -16 29 -32 140 -27
179 11 82 85 122 182 99 50 -12 57 -12 75 5 29 26 23 72 -11 98 -39 28 -145
35 -205 12 -98 -37 -164 -131 -164 -232 0 -29 12 -108 26 -175 l26 -122 -38
-30 c-114 -90 -206 -194 -223 -252 -29 -100 130 -376 274 -474 71 -48 99 -53
250 -40 74 6 144 9 155 5 12 -4 24 -22 32 -48 15 -54 25 -67 53 -67 63 0 81
35 59 111 -8 28 -13 53 -11 56 3 2 45 11 94 20 155 27 282 -7 348 -95 52 -67
95 -223 95 -343 0 -47 -23 -89 -59 -108 -14 -8 -373 -91 -392 -91 -3 0 -9 62
-13 138 -8 143 -17 175 -56 187 -13 4 -31 0 -47 -10 l-25 -17 7 -146 c9 -201
-10 -296 -95 -470 -51 -103 -61 -131 -55 -158 3 -20 38 -73 89 -136 309 -384
318 -403 280 -570 -24 -106 -77 -146 -133 -100 -17 13 -23 34 -31 99 -11 96
-26 136 -71 187 l-33 38 13 73 c17 102 1 157 -67 228 -81 84 -232 81 -232 -4
0 -29 47 -58 91 -57 47 0 75 -21 88 -67 10 -38 3 -85 -13 -85 -6 0 -24 9 -41
21 -52 35 -256 134 -357 173 -66 25 -99 43 -103 56 -4 11 5 45 19 77 47 109
61 210 46 328 -14 108 -27 144 -56 155 -31 12 -73 -6 -80 -35 -3 -11 0 -41 5
-65 18 -78 13 -228 -10 -290 -47 -127 -51 -147 -39 -189 18 -70 59 -105 168
-146 114 -44 269 -120 350 -171 157 -100 197 -148 206 -249 9 -89 23 -120 73
-165 48 -42 92 -56 150 -47 46 8 109 49 133 89 22 37 51 150 59 233 l6 60 78
14 c43 7 80 11 83 9 2 -3 -5 -47 -16 -99 -10 -52 -24 -155 -30 -229 -10 -126
-12 -136 -36 -158 -31 -27 -54 -23 -102 19 -54 48 -112 31 -112 -32 0 -42 72
-113 130 -129 90 -24 189 22 219 101 5 15 15 89 21 165 9 113 52 380 64 391 2
3 538 103 550 103 2 0 12 7 20 16 24 24 20 71 -8 89 -22 15 -53 10 -462 -65
-313 -57 -440 -77 -443 -68 -5 14 -121 168 -244 323 -53 66 -87 118 -87 132 0
13 15 54 34 91 35 70 76 182 76 206 0 8 5 18 10 21 6 4 237 56 513 116 276 61
523 115 550 120 26 6 54 17 62 26 24 23 19 70 -9 88 -22 15 -34 14 -155 -13
-100 -22 -131 -25 -131 -16 0 8 11 78 25 156 61 345 62 441 10 556 -27 58
-143 231 -290 433 -52 71 -100 139 -107 152 -8 13 -15 76 -18 157 -5 120 -9
141 -32 185 -82 157 -227 226 -367 176z m147 -117 c49 -20 90 -60 113 -109 14
-31 19 -64 19 -150 0 -169 -14 -140 240 -495 63 -88 116 -165 118 -170 2 -5
-9 -15 -25 -21 -53 -20 -92 -73 -108 -147 -26 -122 76 -241 146 -171 22 22 19
50 -8 81 -23 26 -22 97 2 114 21 16 44 18 64 5 21 -14 28 -117 13 -226 -18
-139 -71 -438 -80 -447 -4 -4 -25 -10 -48 -14 l-41 -6 -6 103 c-11 190 -63
336 -149 422 -59 59 -130 92 -227 108 -106 16 -194 4 -401 -55 -30 -9 -100
-21 -155 -27 -134 -15 -174 -5 -237 63 l-48 50 31 38 c31 38 59 114 59 158 0
14 -7 34 -17 44 -33 37 -103 11 -103 -39 0 -25 -25 -93 -35 -93 -3 0 -19 21
-35 47 -46 73 -42 102 28 175 31 33 92 90 136 126 54 45 110 108 180 201 117
155 118 155 175 176 59 21 82 41 163 145 95 123 151 150 236 114z"/>
<path d="M3995 4796 c-19 -29 -13 -46 25 -75 23 -16 30 -30 30 -55 l0 -34 -37
9 c-83 19 -112 10 -127 -37 -12 -39 21 -63 117 -85 100 -24 129 -20 145 16 19
42 25 126 12 174 -25 94 -126 147 -165 87z"/>
<path d="M3974 4409 c-43 -12 -92 -65 -100 -107 -8 -41 2 -136 17 -166 21 -40
63 -76 99 -86 85 -23 201 47 215 129 13 78 -69 210 -145 231 -40 11 -44 11
-86 -1z m94 -167 c29 -51 18 -75 -32 -70 -28 3 -32 8 -40 45 -11 53 -3 75 26
71 15 -2 31 -18 46 -46z"/>
<path d="M3554 4274 c-42 -44 -46 -86 -9 -110 21 -14 30 -14 54 -5 60 25 90
101 53 134 -29 27 -61 20 -98 -19z"/>
<path d="M4290 4053 c-63 -22 -46 -143 20 -143 48 0 80 81 48 122 -15 19 -47
28 -68 21z"/>
<path d="M2820 3759 c-310 -85 -346 -89 -878 -89 -456 -1 -516 -6 -626 -58
-92 -44 -166 -105 -326 -268 -218 -223 -270 -314 -343 -602 l-31 -123 -238 2
c-179 1 -242 -2 -254 -12 -23 -19 -14 -81 14 -95 15 -7 155 -14 405 -18 210
-4 399 -12 419 -17 52 -13 85 -45 178 -164 44 -57 123 -154 175 -215 120 -142
121 -143 34 -320 -34 -69 -70 -152 -79 -185 -20 -69 4 -60 -250 -99 -209 -33
-454 -61 -689 -81 -201 -17 -221 -24 -221 -76 0 -19 8 -34 23 -44 21 -13 38
-13 146 -2 67 8 123 11 125 8 1 -3 -1 -55 -5 -116 -4 -60 -10 -211 -14 -335
-8 -259 -1 -313 62 -434 50 -95 174 -220 262 -264 175 -87 354 5 354 183 0 76
-23 123 -103 206 -34 35 -74 90 -92 127 -29 59 -32 75 -36 183 -4 108 11 398
24 475 6 31 6 31 92 42 48 6 140 19 204 29 140 21 158 15 185 -56 25 -64 24
-223 -1 -311 -30 -104 -31 -140 -4 -179 36 -53 71 -74 132 -79 73 -6 131 22
214 106 113 112 141 203 142 460 0 129 10 172 48 205 22 20 162 60 162 47 0
-5 -4 -11 -9 -15 -22 -13 -50 -135 -55 -241 -12 -216 -91 -424 -162 -424 -31
0 -64 -33 -64 -63 0 -40 33 -60 85 -55 140 16 234 212 263 555 9 99 14 119 47
182 25 46 49 78 71 91 36 23 69 29 784 135 269 40 454 72 468 81 28 18 29 64
2 89 -20 18 -29 17 -328 -24 -399 -54 -774 -114 -987 -156 -93 -19 -170 -33
-172 -32 -1 2 18 32 43 67 109 155 124 208 124 443 0 191 9 235 50 257 12 7
187 47 389 91 201 44 376 84 388 89 49 21 32 110 -21 110 -19 0 -675 -140
-783 -167 -21 -5 -23 -2 -23 42 0 65 -13 85 -55 85 -63 0 -65 -11 -65 -306 l0
-261 -47 24 c-38 19 -59 24 -99 21 -66 -6 -107 -35 -140 -101 -44 -86 -31
-176 32 -226 32 -25 52 -26 82 -5 27 19 28 53 2 87 -37 46 -16 127 33 127 12
0 46 -16 74 -35 48 -32 52 -37 43 -60 -18 -48 -39 -83 -151 -244 -61 -90 -121
-186 -132 -215 -16 -42 -21 -87 -26 -246 -6 -162 -10 -201 -25 -230 -65 -122
-185 -204 -226 -155 -9 11 -8 27 9 77 58 177 47 335 -33 472 -47 81 -45 91 35
259 98 203 104 279 34 372 l-35 45 34 50 c19 27 37 68 41 89 14 83 -43 199
-116 237 -33 17 -113 18 -194 3 -70 -13 -69 -14 -133 106 -40 78 -51 90 -75
93 -41 5 -70 -24 -65 -65 l4 -33 -103 0 -103 0 6 28 c59 261 105 368 212 500
50 62 81 76 135 61 71 -19 166 -15 220 11 54 26 111 87 128 137 14 44 -8 83
-49 83 -35 0 -46 -8 -66 -47 -28 -56 -100 -89 -165 -75 l-34 7 77 72 c163 150
231 167 606 157 l265 -7 33 -68 c39 -80 74 -106 165 -121 51 -9 72 -8 117 5
72 21 107 58 134 143 l22 68 90 22 c320 78 393 108 378 158 -16 54 -47 56
-194 15z m-415 -236 c-9 -39 -22 -51 -65 -64 -52 -16 -87 -5 -110 34 -34 55
-30 57 81 57 l101 0 -7 -27z m-1021 -1156 c32 -41 33 -69 5 -114 l-22 -35 -23
29 c-12 16 -43 53 -68 83 -43 53 -44 55 -23 62 12 3 41 6 64 7 36 1 45 -3 67
-32z m-662 -1174 c-7 -82 -11 -220 -9 -308 3 -173 17 -234 72 -317 34 -51 32
-62 -7 -54 -44 8 -88 57 -88 98 0 62 -59 89 -101 47 -38 -38 -14 -141 47 -203
53 -53 80 -61 186 -59 92 3 99 1 113 -20 20 -32 4 -88 -37 -122 -26 -22 -39
-26 -70 -22 -87 12 -221 135 -283 259 -45 92 -50 143 -40 401 5 151 10 194 20
191 24 -9 36 -56 30 -109 -9 -70 4 -95 50 -95 42 0 62 26 71 92 9 64 -17 136
-70 195 -67 75 -78 103 -52 138 13 18 64 30 151 34 l30 1 -13 -147z"/>
<path d="M3119 3507 c-120 -80 -71 -287 68 -287 70 0 83 88 18 116 -44 18 -46
44 -5 91 35 40 37 56 10 83 -26 26 -49 25 -91 -3z"/>
<path d="M2707 3472 c-32 -33 -34 -65 -7 -92 28 -28 57 -25 91 9 33 33 36 56
13 89 -22 31 -64 29 -97 -6z"/>
<path d="M1733 3332 c-65 -23 -138 -78 -158 -119 -35 -73 -2 -180 79 -251 59
-52 122 -50 244 5 39 19 82 87 82 131 0 35 -39 148 -64 187 -38 58 -103 75
-183 47z m77 -122 c10 -5 26 -30 36 -55 17 -45 17 -47 -3 -73 -28 -37 -83 -51
-118 -28 -54 35 -57 91 -9 139 28 28 62 34 94 17z"/>
<path d="M3440 3311 c-89 -47 -127 -159 -78 -230 62 -91 154 -124 235 -83 112
57 133 174 50 269 -55 63 -139 81 -207 44z m124 -134 c15 -21 18 -32 10 -44
-27 -44 -82 -42 -103 3 -10 22 -9 31 4 51 21 32 61 28 89 -10z"/>
<path d="M2820 3232 c-43 -21 -74 -67 -90 -132 -16 -66 -6 -112 31 -155 57
-64 155 -71 241 -16 46 29 88 95 88 139 0 52 -60 135 -122 168 -37 19 -106 18
-148 -4z m119 -126 c34 -37 25 -68 -26 -85 -34 -12 -44 -13 -57 -2 -20 17 -20
32 -2 76 18 43 51 47 85 11z"/>
<path d="M2275 3204 c-92 -48 -125 -97 -125 -186 0 -62 24 -108 72 -139 46
-28 193 -24 234 7 83 62 92 134 29 231 -61 94 -136 126 -210 87z m100 -138
c16 -21 25 -44 23 -58 -3 -21 -8 -23 -63 -23 -59 0 -60 1 -63 29 -3 20 4 36
24 57 36 37 47 36 79 -5z"/>
<path d="M1295 2990 c-21 -23 -15 -82 11 -111 25 -28 70 -24 90 6 14 22 15 32
5 65 -18 59 -70 79 -106 40z"/>
<path d="M960 2920 c-39 -39 -14 -100 43 -100 28 0 57 32 57 62 0 24 -35 58
-60 58 -11 0 -29 -9 -40 -20z"/>
<path d="M2546 2864 c-35 -34 -10 -96 39 -96 28 0 65 31 65 56 0 46 -71 74
-104 40z"/>
<path d="M3397 2852 c-42 -46 -6 -102 65 -102 65 0 96 49 62 98 -20 29 -102
32 -127 4z"/>
<path d="M1650 2742 c-50 -25 -76 -70 -84 -146 -17 -151 47 -216 200 -204 43
4 61 11 84 33 39 37 47 71 39 157 -7 81 -33 116 -114 154 -60 28 -79 29 -125
6z m106 -127 c20 -20 25 -34 22 -63 -3 -35 -5 -37 -42 -40 -46 -4 -56 7 -56
64 0 66 32 83 76 39z"/>
<path d="M3326 2548 c-9 -12 -16 -30 -16 -38 0 -20 41 -60 61 -60 28 0 59 30
59 59 0 56 -73 83 -104 39z"/>
<path d="M1527 1672 c-11 -12 -17 -35 -17 -65 0 -39 4 -49 26 -64 24 -15 29
-15 53 -2 39 22 51 81 24 117 -25 33 -63 40 -86 14z"/>
</g>
</svg>
